<?xml version="1.0" encoding="UTF-8" standalone="no"?>
<!-- Created with Inkscape (http://www.inkscape.org/) -->
<svg
   xmlns:dc="http://purl.org/dc/elements/1.1/"
   xmlns:cc="http://creativecommons.org/ns#"
   xmlns:rdf="http://www.w3.org/1999/02/22-rdf-syntax-ns#"
   xmlns:svg="http://www.w3.org/2000/svg"
   xmlns="http://www.w3.org/2000/svg"
   xmlns:sodipodi="http://sodipodi.sourceforge.net/DTD/sodipodi-0.dtd"
   xmlns:inkscape="http://www.inkscape.org/namespaces/inkscape"
   width="744.09448819"
   height="1052.3622047"
   id="svg2"
   sodipodi:version="0.32"
   inkscape:version="0.46"
   sodipodi:docname="logo.svg"
   inkscape:output_extension="org.inkscape.output.svg.inkscape">
  <defs
     id="defs4">
    <inkscape:perspective
       sodipodi:type="inkscape:persp3d"
       inkscape:vp_x="0 : 526.18109 : 1"
       inkscape:vp_y="0 : 1000 : 0"
       inkscape:vp_z="744.09448 : 526.18109 : 1"
       inkscape:persp3d-origin="372.04724 : 350.78739 : 1"
       id="perspective10" />
  </defs>
  <sodipodi:namedview
     id="base"
     pagecolor="#ffffff"
     bordercolor="#666666"
     borderopacity="1.0"
     gridtolerance="10000"
     guidetolerance="10"
     objecttolerance="10"
     inkscape:pageopacity="0.0"
     inkscape:pageshadow="2"
     inkscape:zoom="0.98994949"
     inkscape:cx="298.69533"
     inkscape:cy="520"
     inkscape:document-units="px"
     inkscape:current-layer="g3245"
     showgrid="true"
     inkscape:window-width="1920"
     inkscape:window-height="1177"
     inkscape:window-x="1920"
     inkscape:window-y="0">
    <inkscape:grid
       type="xygrid"
       id="grid2387" />
  </sodipodi:namedview>
  <metadata
     id="metadata7">
    <rdf:RDF>
      <cc:Work
         rdf:about="">
        <dc:format>image/svg+xml</dc:format>
        <dc:type
           rdf:resource="http://purl.org/dc/dcmitype/StillImage" />
      </cc:Work>
    </rdf:RDF>
  </metadata>
  <g
     inkscape:label="Layer 1"
     inkscape:groupmode="layer"
     id="layer1">
    <g
       id="g3245"
       transform="matrix(0.6839409,0,0,1.2487063,21.998903,-104.41028)">
      <g
         id="g3250"
         inkscape:export-xdpi="90"
         inkscape:export-ydpi="90">
        <path
           style="fill:#900000;fill-opacity:1"
           id="path3239"
           d="M 126.5152,441.80309 C 126.90892,441.73962 127.31379,441.72532 127.69635,441.61269 C 128.66109,441.32865 131.48543,440.26182 130.54005,440.6048 C -49.17763,505.80666 259.41359,393.83778 79.752008,458.99257 C 98.6673,452.14262 117.5826,445.29267 136.49789,438.44272 C 137.02024,438.3341 137.54855,438.25098 138.06494,438.11687 C 140.13238,437.57995 142.12559,436.84587 144.21733,436.40788 C 146.50888,435.89861 148.65308,434.9611 150.86471,434.21937 C 151.46002,434.01972 152.07672,433.89068 152.68273,433.72633 C 153.28901,433.51977 153.89529,433.31322 154.50157,433.10666 C 157.13933,432.52663 159.70021,431.64269 162.32735,431.02651 C 163.03349,430.86089 163.7554,430.77174 164.46943,430.64435 C 165.18487,430.45996 165.90031,430.27558 166.61575,430.09119 C 171.14276,428.98669 175.73835,428.25666 180.347,427.56349 C 185.23395,426.66532 190.09128,425.55394 194.99053,424.72454 C 200.02041,424.08509 204.96025,422.9247 210,422.36218 C 215.01679,421.30182 220.15033,421.0334 225.26192,420.89453 C 226.13709,420.88403 227.01371,420.91453 227.88743,420.86304 C 229.61287,420.76135 231.32636,420.50773 233.04958,420.37344 C 235.64325,420.17132 238.2356,420.05959 240.83458,419.95379 C 246.0897,419.86887 251.35648,419.63205 256.59883,420.07083 C 261.99556,420.558 267.41351,420.72983 272.8295,420.80526 C 278.15958,420.6999 283.44942,421.34707 288.76763,421.61683 C 289.63257,421.64594 290.49951,421.63871 291.36246,421.70416 C 293.10864,421.8366 294.8415,422.11213 296.58597,422.26542 C 299.20295,422.49539 301.79471,422.624 304.40192,422.96018 C 309.67732,423.31117 314.86884,424.25215 320.08334,425.06118 C 325.06648,426.22807 330.14178,426.88067 335.164,427.82509 C 340.13746,428.63144 345.10552,429.53442 350.02161,430.64535 C 355.02248,431.54205 359.88234,433.03511 364.86892,434.01205 C 370.26485,435.14901 375.64901,436.32584 381.0277,437.54619 C 386.75071,438.66578 392.50733,439.60123 398.22704,440.73559 C 404.06289,441.76697 409.93189,442.62578 415.74816,443.76603 C 416.6925,443.91423 417.64026,444.04215 418.5812,444.21063 C 422.39225,444.89302 420.35196,444.68572 424.11843,445.22001 C 426.89224,445.61348 429.68082,445.79644 432.45695,446.17995 C 438.37079,446.6904 444.27385,447.31945 450.19479,447.75322 C 456.0516,447.87338 461.87525,448.41072 467.71718,448.78653 C 473.63238,449.12052 479.55845,449.16131 485.48131,449.1944 C 491.1856,449.18479 496.88985,449.16909 502.59411,449.15924 C 508.04388,449.15563 513.49363,449.13774 518.94341,449.13974 C 524.29553,449.12502 529.64771,449.13861 534.99985,449.14316 C 540.1062,449.31232 545.16566,448.62435 550.25605,448.32988 C 554.73245,447.97848 559.07641,447.35198 563.58104,447.1306 C 565.57351,446.63693 567.64379,446.63539 569.66057,446.32984 C 571.59566,446.03666 573.4841,445.56436 575.43065,445.3091 C 576.02819,445.24245 576.63115,445.21346 577.22328,445.10914 C 577.78011,445.01103 578.32121,444.83846 578.87018,444.70311 C 579.44369,444.60921 580.01611,444.50838 580.59071,444.4214 C 582.21829,444.17503 583.77003,444.04064 585.36153,443.61094 C 588.13671,442.96877 590.98779,442.50435 593.68944,441.59059 C 596.21106,440.91739 598.90469,440.86755 601.16453,439.50448 C 602.83558,439.31315 604.27295,438.46677 605.87384,438.06127 C 607.75707,437.58427 606.37632,438.17409 608.0593,437.31304 C 608.7259,436.88805 609.53886,437.00924 610.25017,436.76206 C 610.5894,436.64418 610.86933,436.3934 611.2005,436.2545 C 611.87282,435.97251 614.00915,435.48183 613.32438,435.73208 C 595.0949,442.39407 576.82242,448.9378 558.57144,455.54066 C 578.61225,447.66682 521.75783,469.99686 615.8733,434.54749 C 633.76015,427.81026 544.03191,460.70263 561.98806,454.15232 C 580.8302,447.27881 599.72618,440.55279 618.5461,433.61865 C 636.74314,426.91402 582.08651,446.84877 563.85672,453.46382 C 582.04152,447.48016 603.92206,432.19573 625.73191,432.5797 L 572.62096,460.23577 C 571.01185,460.57014 569.46664,461.07392 568.01453,461.85987 C 586.21624,455.21755 604.41794,448.57522 622.61964,441.93289 C 503.48743,485.24712 590.08277,453.77453 620.78097,442.56703 C 621.07342,442.46026 620.1815,442.73748 619.88918,442.8446 C 601.05723,449.74547 582.01373,456.09809 563.40924,463.59059 C 545.65535,470.74052 637.21915,435.3625 617.3443,443.89519 C 596.32232,451.52959 576.38754,459.20471 555.72208,466.2062 C 553.37371,466.67358 551.11791,467.60935 548.83424,468.32265 C 546.27297,468.59391 543.78438,469.30566 541.29034,469.95602 C 538.47362,470.46186 535.70142,471.18591 532.85901,471.56681 C 529.56337,471.90342 526.32803,472.64855 523.03212,472.98992 C 519.08572,473.64963 515.09267,474.0673 511.10163,474.32776 C 506.7331,474.7197 502.379,475.2612 497.98953,475.36907 C 492.90756,475.7043 487.83276,475.93629 482.7366,475.77265 C 477.37964,475.77726 472.02266,475.79085 466.66573,475.77789 C 461.23397,475.7821 455.80223,475.76831 450.37047,475.77147 C 444.70915,475.76675 439.04715,475.7661 433.38651,475.6726 C 427.39031,475.58664 421.3923,475.44643 415.41103,474.98575 C 409.58194,474.55688 403.74081,474.37778 397.9197,473.84759 C 391.93656,473.29684 385.94076,472.86931 379.97947,472.10505 C 374.315,471.47728 368.724,470.44433 363.12723,469.37876 C 357.28902,468.36916 351.45167,467.35453 345.61677,466.3258 C 339.84037,465.30692 334.08618,464.16431 328.33923,462.99254 C 322.88711,461.86861 317.44797,460.68328 311.99738,459.55183 C 307.05043,458.39075 302.10445,457.2275 297.11314,456.26948 C 292.1896,455.36324 287.28248,454.36917 282.33392,453.60204 C 277.30296,452.79152 272.32599,451.68729 267.28777,450.91936 C 262.15747,450.08003 256.98858,449.56436 251.81304,449.09096 C 246.64611,448.71752 241.49277,448.18772 236.31633,447.96047 C 231.03909,447.61653 225.76762,447.32508 220.47661,447.30637 C 215.049,447.09459 209.63065,446.75002 204.20554,446.49311 C 199.0023,446.50914 193.79709,446.61376 188.60099,446.89555 C 183.41207,447.20114 178.23545,447.68213 173.03927,447.85465 C 168.00137,448.25694 163.01402,448.96816 158.02806,449.78688 C 153.06096,450.66716 148.08224,451.47996 143.12099,452.39032 C 138.22058,453.42114 133.27922,454.26979 128.35186,455.1573 C 123.77465,456.01026 119.22226,456.94759 114.71897,458.1392 C 110.63648,459.10792 106.60547,460.31456 102.6229,461.63139 C 99.10166,462.72679 95.608284,463.89858 92.017305,464.76333 C 71.734921,471.50537 42.142833,475.3418 138.12015,447.59489 C -13.26743,502.58357 135.25204,448.63784 135.1305,448.67754 C 116.01382,454.92163 97.3102,462.3659 78.389254,469.18015 C 76.895653,469.71807 75.327745,469.9096 73.855299,470.50769 L 126.5152,441.80309 z" />
        <path
           style="fill:#004700;fill-opacity:1"
           id="path3241"
           d="M 126.49359,513.51992 C 126.88731,513.45645 127.29218,513.44215 127.67474,513.32952 C 128.63948,513.04548 131.46382,511.97865 130.51844,512.32163 C -49.199237,577.52349 259.39198,465.55461 79.7304,530.7094 C 98.64569,523.85945 117.56099,517.0095 136.47628,510.15955 C 136.99863,510.05093 137.52694,509.96781 138.04333,509.8337 C 140.11077,509.29678 142.10398,508.5627 144.19572,508.12471 C 146.48727,507.61544 148.63147,506.67793 150.8431,505.9362 C 151.43841,505.73655 152.05511,505.60751 152.66112,505.44316 C 153.2674,505.2366 153.87368,505.03005 154.47996,504.82349 C 157.11772,504.24346 159.6786,503.35952 162.30574,502.74334 C 163.01188,502.57772 163.73379,502.48857 164.44782,502.36118 C 165.16326,502.17679 165.8787,501.99241 166.59414,501.80802 C 171.12115,500.70352 175.71674,499.97349 180.32539,499.28032 C 185.21234,498.38215 190.06967,497.27077 194.96892,496.44137 C 199.9988,495.80192 204.93864,494.64153 209.97839,494.07901 C 214.99518,493.01865 220.12872,492.75023 225.24031,492.61136 C 226.11548,492.60086 226.9921,492.63136 227.86582,492.57987 C 229.59126,492.47818 231.30475,492.22456 233.02797,492.09027 C 235.62164,491.88815 238.21399,491.77642 240.81297,491.67062 C 246.06809,491.5857 251.33487,491.34888 256.57722,491.78766 C 261.97395,492.27483 267.3919,492.44666 272.80789,492.52209 C 278.13797,492.41673 283.42781,493.0639 288.74602,493.33366 C 289.61096,493.36277 290.4779,493.35554 291.34085,493.42099 C 293.08703,493.55343 294.81989,493.82896 296.56436,493.98225 C 299.18134,494.21222 301.7731,494.34083 304.38031,494.67701 C 309.65571,495.028 314.84723,495.96898 320.06173,496.77801 C 325.04487,497.9449 330.12017,498.5975 335.14239,499.54192 C 340.11585,500.34827 345.08391,501.25125 350,502.36218 C 355.00087,503.25888 359.86073,504.75194 364.84731,505.72888 C 370.24324,506.86584 375.6274,508.04267 381.00609,509.26302 C 386.7291,510.38261 392.48572,511.31806 398.20543,512.45242 C 404.04128,513.4838 409.91028,514.34261 415.72655,515.48286 C 416.67089,515.63106 417.61865,515.75898 418.55959,515.92746 C 422.37064,516.60985 420.33035,516.40255 424.09682,516.93684 C 426.87063,517.33031 429.65921,517.51327 432.43534,517.89678 C 438.34918,518.40723 444.25224,519.03628 450.17318,519.47005 C 456.02999,519.59021 461.85364,520.12755 467.69557,520.50336 C 473.61077,520.83735 479.53684,520.87814 485.4597,520.91123 C 491.16399,520.90162 496.86824,520.88592 502.5725,520.87607 C 508.02227,520.87246 513.47202,520.85457 518.9218,520.85657 C 524.27392,520.84185 529.6261,520.85544 534.97824,520.85999 C 540.08459,521.02915 545.14405,520.34118 550.23444,520.04671 C 554.71084,519.69531 559.0548,519.06881 563.55943,518.84743 C 565.5519,518.35376 567.62218,518.35222 569.63896,518.04667 C 571.57405,517.75349 573.46249,517.28119 575.40904,517.02593 C 576.00658,516.95928 576.60954,516.93029 577.20167,516.82597 C 577.7585,516.72786 578.2996,516.55529 578.84857,516.41994 C 579.42208,516.32604 579.9945,516.22521 580.5691,516.13823 C 582.19668,515.89186 583.74842,515.75747 585.33992,515.32777 C 588.1151,514.6856 590.96618,514.22118 593.66783,513.30742 C 596.18945,512.63422 598.88308,512.58438 601.14292,511.22131 C 602.81397,511.02998 604.25134,510.1836 605.85223,509.7781 C 607.73546,509.3011 606.35471,509.89092 608.03769,509.02987 C 608.70429,508.60488 609.51725,508.72607 610.22856,508.47889 C 610.56779,508.36101 610.84772,508.11023 611.17889,507.97133 C 611.85121,507.68934 613.98754,507.19866 613.30277,507.44891 C 595.07329,514.1109 576.80081,520.65463 558.54983,527.25749 C 578.59064,519.38365 521.73622,541.71369 615.85169,506.26432 C 633.73854,499.52709 544.0103,532.41946 561.96645,525.86915 C 580.80859,518.99564 599.70457,512.26962 618.52449,505.33548 C 636.72153,498.63085 582.0649,518.5656 563.83511,525.18065 C 582.01991,519.19699 603.90045,503.91256 625.7103,504.29653 L 572.59935,531.9526 C 570.99024,532.28697 569.44503,532.79075 567.99292,533.5767 C 586.19463,526.93438 604.39633,520.29205 622.59803,513.64972 C 503.46582,556.96395 590.06116,525.49136 620.75936,514.28386 C 621.05181,514.17709 620.15989,514.45431 619.86757,514.56143 C 601.03562,521.4623 581.99212,527.81492 563.38763,535.30742 C 545.63374,542.45735 637.19754,507.07933 617.32269,515.61202 C 596.30071,523.24642 576.36593,530.92154 555.70047,537.92303 C 553.3521,538.39041 551.0963,539.32618 548.81263,540.03948 C 546.25136,540.31074 543.76277,541.02249 541.26873,541.67285 C 538.45201,542.17869 535.67981,542.90274 532.8374,543.28364 C 529.54176,543.62025 526.30642,544.36538 523.01051,544.70675 C 519.06411,545.36646 515.07106,545.78413 511.08002,546.04459 C 506.71149,546.43653 502.35739,546.97803 497.96792,547.0859 C 492.88595,547.42113 487.81115,547.65312 482.71499,547.48948 C 477.35803,547.49409 472.00105,547.50768 466.64412,547.49472 C 461.21236,547.49893 455.78062,547.48514 450.34886,547.4883 C 444.68754,547.48358 439.02554,547.48293 433.3649,547.38943 C 427.3687,547.30347 421.37069,547.16326 415.38942,546.70258 C 409.56033,546.27371 403.7192,546.09461 397.89809,545.56442 C 391.91495,545.01367 385.91915,544.58614 379.95786,543.82188 C 374.29339,543.19411 368.70239,542.16116 363.10562,541.09559 C 357.26741,540.08599 351.43006,539.07136 345.59516,538.04263 C 339.81876,537.02375 334.06457,535.88114 328.31762,534.70937 C 322.8655,533.58544 317.42636,532.40011 311.97577,531.26866 C 307.02882,530.10758 302.08284,528.94433 297.09153,527.98631 C 292.16799,527.08007 287.26087,526.086 282.31231,525.31887 C 277.28135,524.50835 272.30438,523.40412 267.26616,522.63619 C 262.13586,521.79686 256.96697,521.28119 251.79143,520.80779 C 246.6245,520.43435 241.47116,519.90455 236.29472,519.6773 C 231.01748,519.33336 225.74601,519.04191 220.455,519.0232 C 215.02739,518.81142 209.60904,518.46685 204.18393,518.20994 C 198.98069,518.22597 193.77548,518.33059 188.57938,518.61238 C 183.39046,518.91797 178.21384,519.39896 173.01766,519.57148 C 167.97976,519.97377 162.99241,520.68499 158.00645,521.50371 C 153.03935,522.38399 148.06063,523.19679 143.09938,524.10715 C 138.19897,525.13797 133.25761,525.98662 128.33025,526.87413 C 123.75304,527.72709 119.20065,528.66442 114.69736,529.85603 C 110.61487,530.82475 106.58386,532.03139 102.60129,533.34822 C 99.08005,534.44362 95.58668,535.61541 91.9957,536.48016 C 71.71331,543.2222 42.12123,547.05863 138.09854,519.31172 C -13.289037,574.3004 135.23043,520.35467 135.10889,520.39437 C 115.99221,526.63846 97.28859,534.08273 78.36765,540.89698 C 76.87405,541.4349 75.30614,541.62643 73.83369,542.22452 L 126.49359,513.51992 z" />
        <path
           style="fill:#0101ff;fill-opacity:1"
           id="path3243"
           d="M 126.03859,586.8589 C 126.43231,586.79543 126.83718,586.78113 127.21974,586.6685 C 128.18448,586.38446 131.00882,585.31763 130.06344,585.66061 C -49.65424,650.86247 258.93698,538.89359 79.2754,604.04838 C 98.19069,597.19843 117.10599,590.34848 136.02128,583.49853 C 136.54363,583.38991 137.07194,583.30679 137.58833,583.17268 C 139.65577,582.63576 141.64898,581.90168 143.74072,581.46369 C 146.03227,580.95442 148.17647,580.01691 150.3881,579.27518 C 150.98341,579.07553 151.60011,578.94649 152.20612,578.78214 C 152.8124,578.57558 153.41868,578.36903 154.02496,578.16247 C 156.66272,577.58244 159.2236,576.6985 161.85074,576.08232 C 162.55688,575.9167 163.27879,575.82755 163.99282,575.70016 C 164.70826,575.51577 165.4237,575.33139 166.13914,575.147 C 170.66615,574.0425 175.26174,573.31247 179.87039,572.6193 C 184.75734,571.72113 189.61467,570.60975 194.51392,569.78035 C 199.5438,569.1409 204.48364,567.98051 209.52339,567.41799 C 214.54018,566.35763 219.67372,566.08921 224.78531,565.95034 C 225.66048,565.93984 226.5371,565.97034 227.41082,565.91885 C 229.13626,565.81716 230.84975,565.56354 232.57297,565.42925 C 235.16664,565.22713 237.75899,565.1154 240.35797,565.0096 C 245.61309,564.92468 250.87987,564.68786 256.12222,565.12664 C 261.51895,565.61381 266.9369,565.78564 272.35289,565.86107 C 277.68297,565.75571 282.97281,566.40288 288.29102,566.67264 C 289.15596,566.70175 290.0229,566.69452 290.88585,566.75997 C 292.63203,566.89241 294.36489,567.16794 296.10936,567.32123 C 298.72634,567.5512 301.3181,567.67981 303.92531,568.01599 C 309.20071,568.36698 314.39223,569.30796 319.60673,570.11699 C 324.58987,571.28388 329.66517,571.93648 334.68739,572.8809 C 339.66085,573.68725 344.62891,574.59023 349.545,575.70116 C 354.54587,576.59786 359.40573,578.09092 364.39231,579.06786 C 369.78824,580.20482 375.1724,581.38165 380.55109,582.602 C 386.2741,583.72159 392.03072,584.65704 397.75043,585.7914 C 403.58628,586.82278 409.45528,587.68159 415.27155,588.82184 C 416.21589,588.97004 417.16365,589.09796 418.10459,589.26644 C 421.91564,589.94883 419.87535,589.74153 423.64182,590.27582 C 426.41563,590.66929 429.20421,590.85225 431.98034,591.23576 C 437.89418,591.74621 443.79724,592.37526 449.71818,592.80903 C 455.57499,592.92919 461.39864,593.46653 467.24057,593.84234 C 473.15577,594.17633 479.08184,594.21712 485.0047,594.25021 C 490.70899,594.2406 496.41324,594.2249 502.1175,594.21505 C 507.56727,594.21144 513.01702,594.19355 518.4668,594.19555 C 523.81892,594.18083 529.1711,594.19442 534.52324,594.19897 C 539.62959,594.36813 544.68905,593.68016 549.77944,593.38569 C 554.25584,593.03429 558.5998,592.40779 563.10443,592.18641 C 565.0969,591.69274 567.16718,591.6912 569.18396,591.38565 C 571.11905,591.09247 573.00749,590.62017 574.95404,590.36491 C 575.55158,590.29826 576.15454,590.26927 576.74667,590.16495 C 577.3035,590.06684 577.8446,589.89427 578.39357,589.75892 C 578.96708,589.66502 579.5395,589.56419 580.1141,589.47721 C 581.74168,589.23084 583.29342,589.09645 584.88492,588.66675 C 587.6601,588.02458 590.51118,587.56016 593.21283,586.6464 C 595.73445,585.9732 598.42808,585.92336 600.68792,584.56029 C 602.35897,584.36896 603.79634,583.52258 605.39723,583.11708 C 607.28046,582.64008 605.89971,583.2299 607.58269,582.36885 C 608.24929,581.94386 609.06225,582.06505 609.77356,581.81787 C 610.11279,581.69999 610.39272,581.44921 610.72389,581.31031 C 611.39621,581.02832 613.53254,580.53764 612.84777,580.78789 C 594.61829,587.44988 576.34581,593.99361 558.09483,600.59647 C 578.13564,592.72263 521.28122,615.05267 615.39669,579.6033 C 633.28354,572.86607 543.5553,605.75844 561.51145,599.20813 C 580.35359,592.33462 599.24957,585.6086 618.06949,578.67446 C 636.26653,571.96983 581.6099,591.90458 563.38011,598.51963 C 581.56491,592.53597 603.44545,577.25154 625.2553,577.63551 L 572.14435,605.29158 C 570.53524,605.62595 568.99003,606.12973 567.53792,606.91568 C 585.73963,600.27336 603.94133,593.63103 622.14303,586.9887 C 503.01082,630.30293 589.60616,598.83034 620.30436,587.62284 C 620.59681,587.51607 619.70489,587.79329 619.41257,587.90041 C 600.58062,594.80128 581.53712,601.1539 562.93263,608.6464 C 545.17874,615.79633 636.74254,580.41831 616.86769,588.951 C 595.84571,596.5854 575.91093,604.26052 555.24547,611.26201 C 552.8971,611.72939 550.6413,612.66516 548.35763,613.37846 C 545.79636,613.64972 543.30777,614.36147 540.81373,615.01183 C 537.99701,615.51767 535.22481,616.24172 532.3824,616.62262 C 529.08676,616.95923 525.85142,617.70436 522.55551,618.04573 C 518.60911,618.70544 514.61606,619.12311 510.62502,619.38357 C 506.25649,619.77551 501.90239,620.31701 497.51292,620.42488 C 492.43095,620.76011 487.35615,620.9921 482.25999,620.82846 C 476.90303,620.83307 471.54605,620.84666 466.18912,620.8337 C 460.75736,620.83791 455.32562,620.82412 449.89386,620.82728 C 444.23254,620.82256 438.57054,620.82191 432.9099,620.72841 C 426.9137,620.64245 420.91569,620.50224 414.93442,620.04156 C 409.10533,619.61269 403.2642,619.43359 397.44309,618.9034 C 391.45995,618.35265 385.46415,617.92512 379.50286,617.16086 C 373.83839,616.53309 368.24739,615.50014 362.65062,614.43457 C 356.81241,613.42497 350.97506,612.41034 345.14016,611.38161 C 339.36376,610.36273 333.60957,609.22012 327.86262,608.04835 C 322.4105,606.92442 316.97136,605.73909 311.52077,604.60764 C 306.57382,603.44656 301.62784,602.28331 296.63653,601.32529 C 291.71299,600.41905 286.80587,599.42498 281.85731,598.65785 C 276.82635,597.84733 271.84938,596.7431 266.81116,595.97517 C 261.68086,595.13584 256.51197,594.62017 251.33643,594.14677 C 246.1695,593.77333 241.01616,593.24353 235.83972,593.01628 C 230.56248,592.67234 225.29101,592.38089 220,592.36218 C 214.57239,592.1504 209.15404,591.80583 203.72893,591.54892 C 198.52569,591.56495 193.32048,591.66957 188.12438,591.95136 C 182.93546,592.25695 177.75884,592.73794 172.56266,592.91046 C 167.52476,593.31275 162.53741,594.02397 157.55145,594.84269 C 152.58435,595.72297 147.60563,596.53577 142.64438,597.44613 C 137.74397,598.47695 132.80261,599.3256 127.87525,600.21311 C 123.29804,601.06607 118.74565,602.0034 114.24236,603.19501 C 110.15987,604.16373 106.12886,605.37037 102.14629,606.6872 C 98.62505,607.7826 95.13168,608.95439 91.5407,609.81914 C 71.25831,616.56118 41.66623,620.39761 137.64354,592.6507 C -13.74404,647.63938 134.77543,593.69365 134.65389,593.73335 C 115.53721,599.97744 96.83359,607.42171 77.91265,614.23596 C 76.41905,614.77388 74.85114,614.96541 73.37869,615.5635 L 126.03859,586.8589 z" />
      </g>
    </g>
  </g>
</svg>
